<svg
  width="81"
  height="20"
  viewBox="0 0 81 20"
  fill="none"
  xmlns="http://www.w3.org/2000/svg"
>
  <path
    d="M26.3043 5.38525H24.0742V18.231H34.3984V16.2844H26.3043V5.38525Z"
    fill="black"
  />
  <path
    d="M54.8493 6.55151C53.1098 6.55151 51.9722 7.45768 51.4154 9.00711C50.9685 7.41433 49.8098 6.55151 48.0252 6.55151C46.4647 6.55151 45.3948 7.28148 44.7929 8.56382V6.81721H42.3838V13.1869C42.3838 15.3335 41.0461 16.5501 39.4405 16.5501C37.7912 16.5501 36.8552 15.8201 36.8552 13.7841V6.81721H34.6914V14.1826C34.6914 16.9039 36.0292 18.3638 38.6835 18.3638C40.6669 18.3638 41.827 17.4339 42.3838 15.8201V18.231H44.7929V11.5284C44.7929 9.31616 45.9742 8.34287 47.3302 8.34287C48.5566 8.34287 49.4447 8.87427 49.4447 10.9747V18.231H51.6071V11.5284C51.6071 9.31616 52.8109 8.34287 54.1712 8.34287C55.3976 8.34287 56.2448 8.87427 56.2448 10.9747V18.231H58.4086V10.6209C58.4171 7.9667 57.1681 6.55151 54.8493 6.55151Z"
    fill="black"
  />
  <path
    d="M65.0815 6.55151C61.6984 6.55151 59.5078 8.87427 59.5078 12.4794C59.5078 16.1516 61.7816 18.3415 65.0815 18.3638C68.4647 18.3638 70.6567 16.0635 70.6567 12.4794C70.6567 8.76379 68.3589 6.57389 65.0815 6.55151ZM65.0815 16.5501C62.9191 16.5711 61.759 15.0678 61.7365 12.4794C61.7153 9.80281 62.9642 8.38762 65.0815 8.36525C67.289 8.34287 68.4492 9.86993 68.4492 12.4794C68.4492 15.1335 67.2171 16.5277 65.0815 16.5501Z"
    fill="black"
  />
  <path
    d="M76.7446 11.4835C74.6302 10.9969 74.1128 10.6655 74.1128 9.73693C74.1128 8.80838 74.7824 8.23224 76.2089 8.23224C77.5918 8.23224 78.5067 8.82936 78.6406 10.7312L80.8467 10.4515C80.669 7.81831 78.7956 6.55835 76.3429 6.55835C73.6223 6.55835 71.973 7.88544 71.973 9.78727C71.973 11.7115 72.9315 12.7239 75.9425 13.3714C78.1049 13.8133 78.7068 14.1895 78.7068 15.2285C78.7068 16.2241 77.9484 16.6451 76.5656 16.6451C75.1827 16.6451 73.8873 16.136 73.7787 14.2999L71.4824 14.588C71.6614 17.1051 73.6674 18.3483 76.4542 18.3483C79.1523 18.3483 80.8692 17.1317 80.8692 15.0075C80.8692 13.0539 80.0671 12.2135 76.7446 11.4835Z"
    fill="black"
  />
  <path
    d="M19.6306 5.57125C19.6308 6.30299 19.4857 7.02761 19.2036 7.7037C18.9214 8.3798 18.5078 8.99413 17.9863 9.51162C17.4647 10.0291 16.8456 10.4396 16.1641 10.7197C15.4827 10.9997 14.7523 11.1439 14.0146 11.1439C12.5251 11.1435 11.0966 10.5562 10.0434 9.51121C8.99028 8.46618 8.39864 7.04897 8.39864 5.57125C8.39864 4.09366 8.99032 2.67659 10.0435 1.63178C11.0967 0.58697 12.5252 0 14.0146 0C15.5041 0 16.9326 0.58697 17.9858 1.63178C19.039 2.67659 19.6306 4.09366 19.6306 5.57125ZM4.43755 15.7069V4.26654H0V20H15.6992V15.7069H4.43755Z"
    fill="url(#paint0_linear)"
  />
  <defs>
    <linearGradient
      id="paint0_linear"
      x1="-0.0422888"
      y1="19.958"
      x2="18.0623"
      y2="1.70802"
      gradientUnits="userSpaceOnUse"
    >
      <stop stop-color="#EE0979" />
      <stop offset="0.14" stop-color="#EF0E78" />
      <stop offset="0.3" stop-color="#F01B74" />
      <stop offset="0.47" stop-color="#F2326F" />
      <stop offset="0.65" stop-color="#F65267" />
      <stop offset="0.83" stop-color="#FA7A5C" />
      <stop offset="1" stop-color="#FFA751" />
    </linearGradient>
  </defs>
</svg>
