<svg id="icon" xmlns="http://www.w3.org/2000/svg" viewBox="0 0 28 28.53">
  <defs>
    <style>
      .cls-1 {
        fill: #4285f4;
      }
      .cls-2 {
        fill: #34a853;
      }
      .cls-3 {
        fill: #fbbc04;
      }
      .cls-4 {
        fill: #ea4335;
      }
      .cls-5 {
        fill: #c5221f;
      }
    </style>
  </defs>
  <path
    class="cls-1"
    d="M1.91,26.5H6.36V15.68L0,10.91V24.59A1.92,1.92,0,0,0,1.91,26.5"
  />
  <path
    class="cls-2"
    d="M21.64,26.5h4.45A1.91,1.91,0,0,0,28,24.61V10.91l-6.36,4.77"
  />
  <path
    class="cls-3"
    d="M21.64,7.41v8.27L28,10.91V8.37a2.86,2.86,0,0,0-4.58-2.29"
  />
  <path class="cls-4" d="M6.36,15.68V7.41L14,13.14l7.64-5.73v8.27L14,21.41" />
  <path
    class="cls-5"
    d="M0,8.37v2.54l6.36,4.77V7.41L4.58,6.08A2.86,2.86,0,0,0,0,8.37"
  />
</svg>
