<svg
  id="icon"
  xmlns="http://www.w3.org/2000/svg"
  xmlns:xlink="http://www.w3.org/1999/xlink"
  viewBox="0 0 22.3 28.53"
>
  <defs>
    <style>
      .cls-1 {
        fill: none;
      }
      .cls-2 {
        clip-path: url(#clip-path);
      }
      .cls-3 {
        fill: #fbbc05;
      }
      .cls-4 {
        fill: #ea4335;
      }
      .cls-5 {
        fill: #34a853;
      }
      .cls-6 {
        fill: #4285f4;
      }
    </style>
    <clipPath id="clip-path">
      <path
        class="cls-1"
        d="M22,13.93H11.41v4.4h6.12c-.57,2.8-3,4.41-6.12,4.41a6.74,6.74,0,0,1,0-13.48,6.6,6.6,0,0,1,4.2,1.5l3.32-3.32a11.4,11.4,0,1,0-7.52,20c5.7,0,10.89-4.15,10.89-11.41A9.17,9.17,0,0,0,22,13.93Z"
      />
    </clipPath>
  </defs>
  <g class="cls-2"><path class="cls-3" d="M-1,22.74V9.26L7.78,16Z" /></g>
  <g class="cls-2">
    <path class="cls-4" d="M-1,9.26,7.78,16l3.63-3.16,12.45-2V3.55H-1Z" />
  </g>
  <g class="cls-2">
    <path class="cls-5" d="M-1,22.74,14.52,10.81l4.1.52,5.24-7.78v24.9H-1Z" />
  </g>
  <g class="cls-2">
    <path class="cls-6" d="M23.86,28.45,7.78,16,5.7,14.44,23.86,9.26Z" />
  </g>
</svg>
