<svg width="16" height="16" viewBox="0 0 16 16" fill="none" xmlns="http://www.w3.org/2000/svg">
    <g clip-path="url(#clip0_3_321)">
        <path
            d="M13.4995 12H10.4995C10.1017 12 9.72016 12.158 9.43885 12.4393C9.15755 12.7206 8.99951 13.1022 8.99951 13.5V14.5H9.99951V13.5C9.99951 13.3674 10.0522 13.2402 10.146 13.1464C10.2397 13.0527 10.3669 13 10.4995 13H13.4995C13.6321 13 13.7593 13.0527 13.8531 13.1464C13.9468 13.2402 13.9995 13.3674 13.9995 13.5V14.5H14.9995V13.5C14.9995 13.1022 14.8415 12.7206 14.5602 12.4393C14.2789 12.158 13.8973 12 13.4995 12Z"
            fill="black" />
        <path
            d="M11.9995 11.5C12.3951 11.5 12.7818 11.3827 13.1107 11.1629C13.4396 10.9432 13.6959 10.6308 13.8473 10.2654C13.9986 9.89992 14.0383 9.49778 13.9611 9.10982C13.8839 8.72186 13.6934 8.36549 13.4137 8.08579C13.134 7.80608 12.7777 7.6156 12.3897 7.53843C12.0017 7.46126 11.5996 7.50087 11.2341 7.65224C10.8687 7.80362 10.5563 8.05996 10.3366 8.38886C10.1168 8.71776 9.99951 9.10444 9.99951 9.5C9.99951 10.0304 10.2102 10.5391 10.5853 10.9142C10.9604 11.2893 11.4691 11.5 11.9995 11.5ZM11.9995 8.5C12.1973 8.5 12.3906 8.55865 12.5551 8.66853C12.7195 8.77841 12.8477 8.93459 12.9234 9.11732C12.9991 9.30004 13.0189 9.50111 12.9803 9.69509C12.9417 9.88907 12.8465 10.0673 12.7066 10.2071C12.5668 10.347 12.3886 10.4422 12.1946 10.4808C12.0006 10.5194 11.7996 10.4996 11.6168 10.4239C11.4341 10.3482 11.2779 10.22 11.168 10.0556C11.0582 9.89112 10.9995 9.69778 10.9995 9.5C10.9995 9.23478 11.1049 8.98043 11.2924 8.79289C11.4799 8.60536 11.7343 8.5 11.9995 8.5Z"
            fill="black" />
        <path
            d="M11.749 4.5425L8.35301 1.1465C8.25927 1.05273 8.13211 1.00003 7.99951 1H2.99951C2.73453 1.00077 2.48062 1.10637 2.29325 1.29374C2.10588 1.48111 2.00028 1.73502 1.99951 2V14C2.00028 14.265 2.10588 14.5189 2.29325 14.7063C2.48062 14.8936 2.73453 14.9992 2.99951 15H6.99951V14H2.99951V2H6.99951V5C6.99982 5.26512 7.10527 5.5193 7.29274 5.70677C7.48021 5.89424 7.73439 5.9997 7.99951 6H11.1455C11.3144 5.99997 11.4794 5.94988 11.6198 5.85605C11.7602 5.76222 11.8696 5.62887 11.9342 5.47287C11.9988 5.31686 12.0157 5.1452 11.9827 4.9796C11.9497 4.814 11.8684 4.66188 11.749 4.5425ZM7.99951 5V2.20705L10.7922 5H7.99951Z"
            fill="black" />
    </g>
    <defs>
        <clipPath id="clip0_3_321">
            <rect width="16" height="16" fill="white" transform="translate(-0.000488281)" />
        </clipPath>
    </defs>
</svg>