<svg id="icon" xmlns="http://www.w3.org/2000/svg" viewBox="0 0 22.59 28.53">
  <defs>
    <style>
      .cls-1 {
        fill: #0072c6;
      }
    </style>
  </defs>
  <path
    id="path3"
    class="cls-1"
    d="M14.13,9.43v4.46l1.56,1a.25.25,0,0,0,.17,0l6.72-4.52a1,1,0,0,0-.78-.92Z"
  />
  <path
    id="path5"
    class="cls-1"
    d="M14.13,15.56l1.42,1a.45.45,0,0,0,.45,0c-.24.14,6.58-4.39,6.58-4.39v8.21a1.15,1.15,0,0,1-1,1.27H14.13Z"
  />
  <g id="g23">
    <path
      id="path25"
      class="cls-1"
      d="M6.76,13.5a1.32,1.32,0,0,0-1.16.68A3.38,3.38,0,0,0,5.17,16a3.33,3.33,0,0,0,.43,1.8,1.3,1.3,0,0,0,2.26,0A3.27,3.27,0,0,0,8.28,16a3.63,3.63,0,0,0-.41-1.86A1.24,1.24,0,0,0,6.76,13.5Z"
    />
    <path
      id="path27"
      class="cls-1"
      d="M0,7.16V24.63l13.29,2.78V4.59ZM8.89,18.85A2.6,2.6,0,0,1,6.7,20a2.6,2.6,0,0,1-2.16-1.08,4.51,4.51,0,0,1-.83-2.8,4.77,4.77,0,0,1,.85-3A2.66,2.66,0,0,1,6.79,12a2.54,2.54,0,0,1,2.13,1.07,4.62,4.62,0,0,1,.81,2.84A4.67,4.67,0,0,1,8.89,18.85Z"
    />
  </g>
</svg>
